<svg xmlns="http://www.w3.org/2000/svg" width="36" height="36"><path data-name="Вычитание 5" d="M18 35.498a17.5 17.5 0 1117.5-17.5 17.52 17.52 0 01-17.5 17.5zm0-25.673c-2.24 0-2.512.006-3.373.047a5.8 5.8 0 00-1.979.382 4.121 4.121 0 00-2.389 2.383 5.886 5.886 0 00-.383 1.985c-.039.913-.047 1.211-.047 3.373 0 2.252.008 2.513.047 3.373a5.9 5.9 0 00.383 1.985 4.149 4.149 0 002.389 2.388 6.041 6.041 0 001.979.377h.108c.8.033 1.139.047 3.262.047 2.213 0 2.5-.01 3.373-.052a6.029 6.029 0 001.984-.377 4.194 4.194 0 002.389-2.388 6.06 6.06 0 00.377-1.985v-.149c.031-.775.045-1.129.045-3.228 0-2.2-.006-2.5-.053-3.373a6.07 6.07 0 00-.377-1.985 4.028 4.028 0 00-.943-1.445 3.957 3.957 0 00-1.445-.937 5.865 5.865 0 00-1.984-.382c-.849-.026-1.109-.037-3.363-.037zm-.006 12.37a4.2 4.2 0 114.2-4.2 4.205 4.205 0 01-4.202 4.203zm4.363-7.583a.979.979 0 11.979-.979.978.978 0 01-.981.981z" fill="#fff" stroke="rgba(0,0,0,0)" stroke-miterlimit="10"/></svg>