<svg xmlns="http://www.w3.org/2000/svg" width="73.294" height="73.292"><path data-name="Вычитание 5" d="M36.643 72.793A36.146 36.146 0 1172.794 36.64a36.188 36.188 0 01-36.151 36.153zm0-53.028c-4.629 0-5.188.012-6.967.1a11.994 11.994 0 00-4.087.79 8.525 8.525 0 00-4.934 4.921 12.153 12.153 0 00-.791 4.1c-.082 1.886-.095 2.5-.095 6.966 0 4.653.013 5.19.095 6.967a12.163 12.163 0 00.791 4.1 8.581 8.581 0 004.934 4.933 12.477 12.477 0 004.087.779l.215.009h.009c1.663.069 2.355.1 6.739.1 4.569 0 5.166-.02 6.967-.107a12.452 12.452 0 004.1-.779 8.233 8.233 0 002.987-1.947 8.342 8.342 0 001.947-2.986 12.508 12.508 0 00.782-4.1v-.2l.009-.1c.064-1.6.095-2.333.095-6.666 0-4.548-.013-5.17-.107-6.966a12.543 12.543 0 00-.782-4.1 8.347 8.347 0 00-1.947-2.985 8.15 8.15 0 00-2.987-1.936 12.093 12.093 0 00-4.1-.79c-1.764-.079-2.303-.103-6.96-.103zm-.013 25.551a8.676 8.676 0 118.678-8.676 8.686 8.686 0 01-8.678 8.676zm9.013-15.664a2.023 2.023 0 112.02-2.022 2.023 2.023 0 01-2.02 2.022z" fill="#fff" stroke="rgba(0,0,0,0)" stroke-miterlimit="10"/></svg>