<svg xmlns="http://www.w3.org/2000/svg" width="72.298" height="72.286"><path d="M36.155 72.286a36.141 36.141 0 01-25.565-61.7A36.144 36.144 0 1161.708 61.7a35.89 35.89 0 01-25.553 10.586zm-4.19-40.733a15.053 15.053 0 00-8.729 2.772 10.858 10.858 0 00-4.62 7.5 19.14 19.14 0 00.021 2.254A11.361 11.361 0 0025.17 52.7a14.783 14.783 0 006.645 1.58c.206 0 .408-.009.645-.019h.013a14.07 14.07 0 0010.577-4.849 10.434 10.434 0 002.411-5.958c.039-2.5.039-5.049.039-7.518v-.739c0-1.627 0-3.308.009-4.962a23.764 23.764 0 002.9 1.411 21.864 21.864 0 007.509 1.454v-6.084a13.812 13.812 0 01-7.595-2.7 8.792 8.792 0 01-3.133-6.306c-1.023.008-2.059.009-3.065.01h-.271c-1.2 0-2.437 0-3.653.019-.039 3.484-.039 7.034-.039 10.468v.933c0 2.243 0 4.561-.009 6.845v2.166c0 1.823.009 3.89-.129 5.929a2.939 2.939 0 01-.662 1.5l-.017.019-.052.078a6.268 6.268 0 01-4.956 2.434 5.828 5.828 0 01-.451.017c-2.8 0-5.4-1.95-5.82-4.348l-.009-.35a4.16 4.16 0 01.266-2.083A5.438 5.438 0 0128.758 39a6.594 6.594 0 013.34-.837 7.966 7.966 0 012.072.271c0-.826.017-1.726.039-2.829.026-1.24.056-2.562.03-3.876a14.448 14.448 0 00-2.274-.176z" fill="#fff"/></svg>