<svg xmlns="http://www.w3.org/2000/svg" width="73.298" height="73.296"><path data-name="Вычитание 7" d="M36.643 72.8A36.148 36.148 0 1172.8 36.643 36.188 36.188 0 0136.643 72.8zm4.092-29.835a1.461 1.461 0 01.984.389l4.444 4.176a2.13 2.13 0 001.474.585h5.841c1.165 0 1.951-.348 2.209-.98a2.467 2.467 0 00-.937-2.482c-.606-.6-2.2-2.255-4.749-4.93-.138-.148-.223-.234-.228-.241a2.028 2.028 0 01-.146-2.619c.834-1.1 2.024-2.674 2.983-3.937.486-.639.907-1.2 1.2-1.592l.009-.009c.881-1.182 2.3-3.32 1.775-4.358-.2-.4-.666-.6-1.384-.6h-6.5a1.472 1.472 0 00-1.3.768c-.009.016-2.592 4.772-3.43 6.393-.958 1.845-1.891 2.86-2.622 2.86a.9.9 0 01-.791-.56 2.987 2.987 0 01-.275-1.338v-6.934a2.188 2.188 0 00-2.188-2.186h-4.9a3.227 3.227 0 00-.284-.011 3.9 3.9 0 00-3.172 1.621.14.14 0 01.034 0 1.9 1.9 0 01.206-.011c.67 0 2.235.289 2.235 2.958 0 .455.013 1.369.03 2.427l.026 1.295v.515c0 .334.013.666.017.989a1.388 1.388 0 01-.378 1.012 1.434 1.434 0 01-1.019.459h-.039a1.431 1.431 0 01-1.075-.476 42.646 42.646 0 01-4.938-8.989 1.376 1.376 0 00-1.246-.79h-5.914a1 1 0 00-1 1 1.04 1.04 0 00.064.358C17.323 32.025 25.038 48.11 34.1 48.11h3.72a1.468 1.468 0 001.474-1.461V44.4a1.44 1.44 0 011.44-1.439z" fill="#fff" stroke="rgba(0,0,0,0)" stroke-miterlimit="10"/></svg>