<svg xmlns="http://www.w3.org/2000/svg" width="36.002" height="36.001"><path data-name="Вычитание 7" d="M17.994 35.502a17.5 17.5 0 1117.5-17.5 17.52 17.52 0 01-17.5 17.5zm1.98-14.444a.7.7 0 01.477.188l2.152 2.021a1.03 1.03 0 00.713.283h2.828c.564 0 .945-.168 1.07-.474a1.2 1.2 0 00-.453-1.2c-.295-.289-1.068-1.092-2.3-2.387l-.109-.117a.98.98 0 01-.072-1.268c.4-.535.98-1.295 1.445-1.906l.582-.771h0c.428-.572 1.111-1.607.859-2.11-.1-.191-.322-.289-.67-.289h-3.148a.709.709 0 00-.627.372c0 .008-1.256 2.31-1.662 3.1-.463.893-.914 1.385-1.27 1.385a.435.435 0 01-.381-.271 1.439 1.439 0 01-.135-.648v-3.357a1.059 1.059 0 00-1.059-1.058h-2.508a1.889 1.889 0 00-1.535.785.042.042 0 01.016 0 1.014 1.014 0 01.1 0c.324 0 1.082.14 1.082 1.432 0 .22.006.663.014 1.175 0 .2.008.412.012.627v.249c0 .162.006.323.008.479a.673.673 0 01-.184.49.689.689 0 01-.492.222h-.02a.691.691 0 01-.52-.23 20.716 20.716 0 01-2.393-4.352.663.663 0 00-.6-.382H8.325a.484.484 0 00-.451.655c.76 2.085 4.494 9.872 8.883 9.872h1.8a.71.71 0 00.713-.707v-1.115a.7.7 0 01.709-.694z" fill="#fff" stroke="rgba(0,0,0,0)" stroke-miterlimit="10"/></svg>