<svg xmlns="http://www.w3.org/2000/svg" width="35.002" height="34.997"><path data-name="Вычитание 8" d="M17.502 34.998a17.5 17.5 0 1112.371-5.125 17.391 17.391 0 01-12.371 5.125zm-2.029-19.72a7.287 7.287 0 00-4.227 1.342 5.262 5.262 0 00-2.236 3.63 9.869 9.869 0 00.01 1.091 5.5 5.5 0 003.164 4.174 7.155 7.155 0 003.217.765c.1 0 .2 0 .313-.009h.006a6.814 6.814 0 005.121-2.347 5.071 5.071 0 001.168-2.885c.018-1.208.018-2.444.018-3.64v-2.757a11.5 11.5 0 001.4.683 10.585 10.585 0 003.639.707v-2.947a6.7 6.7 0 01-3.678-1.308 4.253 4.253 0 01-1.516-3.053h-1.615c-.58 0-1.18 0-1.77.009-.018 1.687-.018 3.405-.018 5.068v4.814c0 .883 0 1.883-.062 2.871a1.437 1.437 0 01-.322.727l-.008.009-.025.038a3.033 3.033 0 01-2.4 1.178 3.276 3.276 0 01-.219.008 2.843 2.843 0 01-2.816-2.1l-.006-.169a2.025 2.025 0 01.131-1.009 2.637 2.637 0 011.174-1.279 3.2 3.2 0 011.617-.405 3.858 3.858 0 011 .131c0-.4.008-.835.018-1.37.014-.6.027-1.24.016-1.876a7.006 7.006 0 00-1.092-.093z" fill="#fff"/></svg>