<svg xmlns="http://www.w3.org/2000/svg" width="73.294" height="73.292" viewBox="0 0 73.294 73.292">
  <g id="instagram-b" transform="translate(0.5 0.5)">
    <path id="Вычитание_5" data-name="Вычитание 5" d="M36.143,72.293A36.146,36.146,0,1,1,72.294,36.14,36.188,36.188,0,0,1,36.143,72.293Zm0-53.028c-4.629,0-5.188.012-6.967.1a11.994,11.994,0,0,0-4.087.79,8.525,8.525,0,0,0-4.934,4.921,12.153,12.153,0,0,0-.791,4.1c-.082,1.886-.095,2.5-.095,6.966,0,4.653.013,5.19.095,6.967a12.163,12.163,0,0,0,.791,4.1,8.581,8.581,0,0,0,4.934,4.933,12.477,12.477,0,0,0,4.087.779l.215.009H29.4c1.663.069,2.355.1,6.739.1,4.569,0,5.166-.02,6.967-.107a12.452,12.452,0,0,0,4.1-.779,8.233,8.233,0,0,0,2.987-1.947,8.342,8.342,0,0,0,1.947-2.986,12.508,12.508,0,0,0,.782-4.1l0-.2.009-.1c.064-1.6.095-2.333.095-6.666,0-4.548-.013-5.17-.107-6.966a12.543,12.543,0,0,0-.782-4.1,8.347,8.347,0,0,0-1.947-2.985,8.15,8.15,0,0,0-2.987-1.936,12.093,12.093,0,0,0-4.1-.79C41.339,19.289,40.8,19.265,36.143,19.265ZM36.13,44.816a8.676,8.676,0,1,1,8.678-8.676A8.686,8.686,0,0,1,36.13,44.816Zm9.013-15.664a2.023,2.023,0,1,1,2.02-2.022A2.023,2.023,0,0,1,45.143,29.152Z" transform="translate(0 0)" fill="#fff" stroke="rgba(0,0,0,0)" stroke-miterlimit="10" stroke-width="1"/>
  </g>
</svg>
