<svg xmlns="http://www.w3.org/2000/svg" width="36" height="36" viewBox="0 0 36 36">
  <g id="instagram" transform="translate(-1837.5 -552.502)">
    <path id="Вычитание_5" data-name="Вычитание 5" d="M20850.5,6770a17.5,17.5,0,1,1,17.5-17.5A17.52,17.52,0,0,1,20850.5,6770Zm0-25.673c-2.24,0-2.512.006-3.373.047a5.8,5.8,0,0,0-1.979.382,4.121,4.121,0,0,0-2.389,2.383,5.886,5.886,0,0,0-.383,1.985c-.039.913-.047,1.211-.047,3.373,0,2.252.008,2.513.047,3.373a5.9,5.9,0,0,0,.383,1.985,4.149,4.149,0,0,0,2.389,2.388,6.041,6.041,0,0,0,1.979.377l.1,0h.008c.8.033,1.139.047,3.262.047,2.213,0,2.5-.01,3.373-.052a6.029,6.029,0,0,0,1.984-.377,4.194,4.194,0,0,0,2.389-2.388,6.06,6.06,0,0,0,.377-1.985l0-.1,0-.049c.031-.775.045-1.129.045-3.228,0-2.2-.006-2.5-.053-3.373a6.07,6.07,0,0,0-.377-1.985,4.028,4.028,0,0,0-.943-1.445,3.957,3.957,0,0,0-1.445-.937,5.865,5.865,0,0,0-1.984-.382C20853.014,6744.34,20852.754,6744.329,20850.5,6744.329Zm-.006,12.37a4.2,4.2,0,1,1,4.2-4.2A4.205,4.205,0,0,1,20850.492,6756.7Zm4.363-7.583a.979.979,0,1,1,.979-.979A.978.978,0,0,1,20854.855,6749.116Z" transform="translate(-18995 -6182)" fill="#fff" stroke="rgba(0,0,0,0)" stroke-miterlimit="10" stroke-width="1"/>
  </g>
</svg>
