<svg xmlns="http://www.w3.org/2000/svg" width="72.035" height="72.035" viewBox="0 0 72.035 72.035">
  <path id="telegram-b" d="M36.018.562A36.018,36.018,0,1,0,72.035,36.58,36.011,36.011,0,0,0,36.018.562ZM53.707,25.237,47.8,53.093c-.436,1.975-1.612,2.454-3.253,1.525l-9-6.637L31.2,52.164a2.273,2.273,0,0,1-1.815.886l.639-9.164L46.707,28.81c.726-.639-.16-1-1.118-.363L24.965,41.431l-8.888-2.774c-1.932-.61-1.975-1.932.407-2.861l34.725-13.39c1.612-.581,3.021.392,2.5,2.832Z" transform="translate(0 -0.563)" fill="#fff"/>
</svg>
