<svg xmlns="http://www.w3.org/2000/svg" width="35.002" height="34.997" viewBox="0 0 35.002 34.997">
  <path id="Вычитание_8" data-name="Вычитание 8" d="M19142.5,6526a17.5,17.5,0,1,1,12.371-5.125A17.391,17.391,0,0,1,19142.5,6526Zm-2.029-19.72a7.287,7.287,0,0,0-4.227,1.342,5.262,5.262,0,0,0-2.236,3.63,9.869,9.869,0,0,0,.01,1.091,5.5,5.5,0,0,0,3.164,4.174,7.155,7.155,0,0,0,3.217.765c.1,0,.2,0,.313-.009h.006a6.814,6.814,0,0,0,5.121-2.347,5.071,5.071,0,0,0,1.168-2.885c.018-1.208.018-2.444.018-3.64l0-.357c0-.788,0-1.6,0-2.4a11.5,11.5,0,0,0,1.4.683,10.585,10.585,0,0,0,3.639.707v-2.947a6.7,6.7,0,0,1-3.678-1.308,4.253,4.253,0,0,1-1.516-3.053c-.5,0-1,0-1.484,0h-.131c-.58,0-1.18,0-1.77.009-.018,1.687-.018,3.405-.018,5.068l0,.452c0,1.086,0,2.208,0,3.314,0,.351,0,.7,0,1.048,0,.883,0,1.883-.062,2.871a1.437,1.437,0,0,1-.322.727l-.008.009-.025.038a3.033,3.033,0,0,1-2.4,1.178c-.074.005-.148.008-.219.008a2.843,2.843,0,0,1-2.816-2.1l-.006-.169a2.025,2.025,0,0,1,.131-1.009,2.637,2.637,0,0,1,1.174-1.279,3.2,3.2,0,0,1,1.617-.405,3.858,3.858,0,0,1,1,.131c0-.4.008-.835.018-1.37.014-.6.027-1.24.016-1.876A7.006,7.006,0,0,0,19140.473,6506.278Z" transform="translate(-19124.998 -6491.002)" fill="#fff"/>
</svg>
