<svg xmlns="http://www.w3.org/2000/svg" width="72.298" height="72.286" viewBox="0 0 72.298 72.286">
  <path id="tiktok-b" d="M36.155,72.286a36.141,36.141,0,0,1-25.565-61.7A36.144,36.144,0,1,1,61.708,61.7,35.89,35.89,0,0,1,36.155,72.286ZM31.965,31.553a15.053,15.053,0,0,0-8.729,2.772,10.858,10.858,0,0,0-4.62,7.5,19.14,19.14,0,0,0,.021,2.254A11.361,11.361,0,0,0,25.17,52.7a14.783,14.783,0,0,0,6.645,1.58c.206,0,.408-.009.645-.019h.013A14.07,14.07,0,0,0,43.05,49.412a10.434,10.434,0,0,0,2.411-5.958c.039-2.5.039-5.049.039-7.518l0-.739c0-1.627,0-3.308.009-4.962a23.764,23.764,0,0,0,2.9,1.411A21.864,21.864,0,0,0,55.918,33.1V27.016a13.812,13.812,0,0,1-7.595-2.7,8.792,8.792,0,0,1-3.133-6.306c-1.023.008-2.059.009-3.065.01h-.271c-1.2,0-2.437,0-3.653.019-.039,3.484-.039,7.034-.039,10.468l0,.933c0,2.243,0,4.561-.009,6.845v2.166c0,1.823.009,3.89-.129,5.929a2.939,2.939,0,0,1-.662,1.5l-.017.019-.052.078a6.268,6.268,0,0,1-4.956,2.434c-.155.012-.305.017-.451.017-2.8,0-5.4-1.95-5.82-4.348l-.009-.35a4.16,4.16,0,0,1,.266-2.083A5.438,5.438,0,0,1,28.758,39a6.594,6.594,0,0,1,3.34-.837,7.966,7.966,0,0,1,2.072.271c0-.826.017-1.726.039-2.829.026-1.24.056-2.562.03-3.876A14.448,14.448,0,0,0,31.965,31.553Z" fill="#fff"/>
</svg>
