<svg xmlns="http://www.w3.org/2000/svg" width="36.002" height="36.001" viewBox="0 0 36.002 36.001">
  <g id="vk" transform="translate(-1837.904 -439.449)">
    <path id="Вычитание_7" data-name="Вычитание 7" d="M20850.9,6802.951a17.5,17.5,0,1,1,17.5-17.5A17.52,17.52,0,0,1,20850.9,6802.951Zm1.98-14.444a.7.7,0,0,1,.477.188l2.152,2.021a1.03,1.03,0,0,0,.713.283h2.828c.564,0,.945-.168,1.07-.474a1.2,1.2,0,0,0-.453-1.2c-.295-.289-1.068-1.092-2.3-2.387l-.109-.117a.98.98,0,0,1-.072-1.268c.4-.535.98-1.295,1.445-1.906l.582-.771,0,0c.428-.572,1.111-1.607.859-2.11-.1-.191-.322-.289-.67-.289h-3.148a.709.709,0,0,0-.627.372c0,.008-1.256,2.31-1.662,3.1-.463.893-.914,1.385-1.27,1.385a.435.435,0,0,1-.381-.271,1.439,1.439,0,0,1-.135-.648v-3.357a1.059,1.059,0,0,0-1.059-1.058h-2.371c-.043,0-.088,0-.137,0a1.889,1.889,0,0,0-1.535.785.042.042,0,0,1,.016,0,1.014,1.014,0,0,1,.1,0c.324,0,1.082.14,1.082,1.432,0,.22.006.663.014,1.175,0,.2.008.412.012.627,0,.083,0,.166,0,.249,0,.162.006.323.008.479a.673.673,0,0,1-.184.49.689.689,0,0,1-.492.222h-.02a.691.691,0,0,1-.52-.23,20.716,20.716,0,0,1-2.393-4.352.663.663,0,0,0-.6-.382h-2.869a.484.484,0,0,0-.451.655c.76,2.085,4.494,9.872,8.883,9.872h1.8a.71.71,0,0,0,.713-.707V6789.2A.7.7,0,0,1,20852.885,6788.506Z" transform="translate(-18995.002 -6328)" fill="#fff" stroke="rgba(0,0,0,0)" stroke-miterlimit="10" stroke-width="1"/>
  </g>
</svg>
