<svg xmlns="http://www.w3.org/2000/svg" width="72.086" height="50.685" viewBox="0 0 72.086 50.685">
  <path id="youtube-b" d="M71.629,12.43a9.058,9.058,0,0,0-6.373-6.414C59.635,4.5,37.093,4.5,37.093,4.5S14.551,4.5,8.929,6.016A9.058,9.058,0,0,0,2.556,12.43C1.05,18.089,1.05,29.894,1.05,29.894s0,11.805,1.506,17.463a8.923,8.923,0,0,0,6.373,6.312c5.622,1.516,28.163,1.516,28.163,1.516s22.542,0,28.163-1.516a8.923,8.923,0,0,0,6.373-6.312c1.506-5.658,1.506-17.463,1.506-17.463s0-11.805-1.506-17.463ZM29.72,40.612V19.176l18.84,10.718L29.72,40.612Z" transform="translate(-1.05 -4.5)" fill="#fff"/>
</svg>
